<?xml version="1.0" standalone="no"?>
<svg xmlns:xlink="http://www.w3.org/1999/xlink" id="wave" style="transform:rotate(180deg); transition: 0.3s" viewBox="0 0 1440 280" version="1.1" xmlns="http://www.w3.org/2000/svg"><defs><linearGradient id="sw-gradient-0" x1="0" x2="0" y1="1" y2="0"><stop stop-color="rgba(255, 127, 80, 1)" offset="0%"/><stop stop-color="rgba(255, 179, 11, 1)" offset="100%"/></linearGradient></defs><path style="transform:translate(0, 0px); opacity:1" fill="url(#sw-gradient-0)" d="M0,168L60,154C120,140,240,112,360,126C480,140,600,196,720,196C840,196,960,140,1080,135.3C1200,131,1320,177,1440,205.3C1560,233,1680,243,1800,247.3C1920,252,2040,252,2160,238C2280,224,2400,196,2520,163.3C2640,131,2760,93,2880,88.7C3000,84,3120,112,3240,130.7C3360,149,3480,159,3600,172.7C3720,187,3840,205,3960,205.3C4080,205,4200,187,4320,168C4440,149,4560,131,4680,107.3C4800,84,4920,56,5040,37.3C5160,19,5280,9,5400,32.7C5520,56,5640,112,5760,130.7C5880,149,6000,131,6120,107.3C6240,84,6360,56,6480,74.7C6600,93,6720,159,6840,158.7C6960,159,7080,93,7200,98C7320,103,7440,177,7560,172.7C7680,168,7800,84,7920,51.3C8040,19,8160,37,8280,74.7C8400,112,8520,168,8580,196L8640,224L8640,280L8580,280C8520,280,8400,280,8280,280C8160,280,8040,280,7920,280C7800,280,7680,280,7560,280C7440,280,7320,280,7200,280C7080,280,6960,280,6840,280C6720,280,6600,280,6480,280C6360,280,6240,280,6120,280C6000,280,5880,280,5760,280C5640,280,5520,280,5400,280C5280,280,5160,280,5040,280C4920,280,4800,280,4680,280C4560,280,4440,280,4320,280C4200,280,4080,280,3960,280C3840,280,3720,280,3600,280C3480,280,3360,280,3240,280C3120,280,3000,280,2880,280C2760,280,2640,280,2520,280C2400,280,2280,280,2160,280C2040,280,1920,280,1800,280C1680,280,1560,280,1440,280C1320,280,1200,280,1080,280C960,280,840,280,720,280C600,280,480,280,360,280C240,280,120,280,60,280L0,280Z"/></svg>