<?xml version="1.0" standalone="no"?>
<svg xmlns:xlink="http://www.w3.org/1999/xlink" id="wave" style="transform:rotate(0deg); transition: 0.3s" viewBox="0 0 1440 190" version="1.1" xmlns="http://www.w3.org/2000/svg"><defs><linearGradient id="sw-gradient-0" x1="0" x2="0" y1="1" y2="0"><stop stop-color="rgba(243, 106, 62, 1)" offset="0%"/><stop stop-color="rgba(255, 179, 11, 1)" offset="100%"/></linearGradient></defs><path style="transform:translate(0, 0px); opacity:1" fill="url(#sw-gradient-0)" d="M0,95L40,101.3C80,108,160,120,240,117.2C320,114,400,95,480,72.8C560,51,640,25,720,28.5C800,32,880,63,960,76C1040,89,1120,82,1200,79.2C1280,76,1360,76,1440,91.8C1520,108,1600,139,1680,142.5C1760,146,1840,120,1920,95C2000,70,2080,44,2160,47.5C2240,51,2320,82,2400,85.5C2480,89,2560,63,2640,50.7C2720,38,2800,38,2880,34.8C2960,32,3040,25,3120,31.7C3200,38,3280,57,3360,72.8C3440,89,3520,101,3600,117.2C3680,133,3760,152,3840,158.3C3920,165,4000,158,4080,142.5C4160,127,4240,101,4320,101.3C4400,101,4480,127,4560,126.7C4640,127,4720,101,4800,76C4880,51,4960,25,5040,15.8C5120,6,5200,13,5280,25.3C5360,38,5440,57,5520,60.2C5600,63,5680,51,5720,44.3L5760,38L5760,190L5720,190C5680,190,5600,190,5520,190C5440,190,5360,190,5280,190C5200,190,5120,190,5040,190C4960,190,4880,190,4800,190C4720,190,4640,190,4560,190C4480,190,4400,190,4320,190C4240,190,4160,190,4080,190C4000,190,3920,190,3840,190C3760,190,3680,190,3600,190C3520,190,3440,190,3360,190C3280,190,3200,190,3120,190C3040,190,2960,190,2880,190C2800,190,2720,190,2640,190C2560,190,2480,190,2400,190C2320,190,2240,190,2160,190C2080,190,2000,190,1920,190C1840,190,1760,190,1680,190C1600,190,1520,190,1440,190C1360,190,1280,190,1200,190C1120,190,1040,190,960,190C880,190,800,190,720,190C640,190,560,190,480,190C400,190,320,190,240,190C160,190,80,190,40,190L0,190Z"/><defs><linearGradient id="sw-gradient-1" x1="0" x2="0" y1="1" y2="0"><stop stop-color="rgba(243, 224.862, 62, 1)" offset="0%"/><stop stop-color="rgba(243.936, 232.753, 160.53, 1)" offset="100%"/></linearGradient></defs><path style="transform:translate(0, 50px); opacity:0.9" fill="url(#sw-gradient-1)" d="M0,133L40,117.2C80,101,160,70,240,53.8C320,38,400,38,480,57C560,76,640,114,720,133C800,152,880,152,960,155.2C1040,158,1120,165,1200,167.8C1280,171,1360,171,1440,142.5C1520,114,1600,57,1680,50.7C1760,44,1840,89,1920,88.7C2000,89,2080,44,2160,22.2C2240,0,2320,0,2400,15.8C2480,32,2560,63,2640,76C2720,89,2800,82,2880,66.5C2960,51,3040,25,3120,25.3C3200,25,3280,51,3360,60.2C3440,70,3520,63,3600,79.2C3680,95,3760,133,3840,123.5C3920,114,4000,57,4080,53.8C4160,51,4240,101,4320,107.7C4400,114,4480,76,4560,72.8C4640,70,4720,101,4800,107.7C4880,114,4960,95,5040,82.3C5120,70,5200,63,5280,53.8C5360,44,5440,32,5520,38C5600,44,5680,70,5720,82.3L5760,95L5760,190L5720,190C5680,190,5600,190,5520,190C5440,190,5360,190,5280,190C5200,190,5120,190,5040,190C4960,190,4880,190,4800,190C4720,190,4640,190,4560,190C4480,190,4400,190,4320,190C4240,190,4160,190,4080,190C4000,190,3920,190,3840,190C3760,190,3680,190,3600,190C3520,190,3440,190,3360,190C3280,190,3200,190,3120,190C3040,190,2960,190,2880,190C2800,190,2720,190,2640,190C2560,190,2480,190,2400,190C2320,190,2240,190,2160,190C2080,190,2000,190,1920,190C1840,190,1760,190,1680,190C1600,190,1520,190,1440,190C1360,190,1280,190,1200,190C1120,190,1040,190,960,190C880,190,800,190,720,190C640,190,560,190,480,190C400,190,320,190,240,190C160,190,80,190,40,190L0,190Z"/><defs><linearGradient id="sw-gradient-2" x1="0" x2="0" y1="1" y2="0"><stop stop-color="rgba(125.543, 33.503, 3.943, 1)" offset="0%"/><stop stop-color="rgba(255, 179, 11, 1)" offset="100%"/></linearGradient></defs><path style="transform:translate(0, 100px); opacity:0.8" fill="url(#sw-gradient-2)" d="M0,95L40,95C80,95,160,95,240,98.2C320,101,400,108,480,114C560,120,640,127,720,117.2C800,108,880,82,960,72.8C1040,63,1120,70,1200,63.3C1280,57,1360,38,1440,25.3C1520,13,1600,6,1680,6.3C1760,6,1840,13,1920,31.7C2000,51,2080,82,2160,85.5C2240,89,2320,63,2400,50.7C2480,38,2560,38,2640,41.2C2720,44,2800,51,2880,72.8C2960,95,3040,133,3120,136.2C3200,139,3280,108,3360,79.2C3440,51,3520,25,3600,38C3680,51,3760,101,3840,110.8C3920,120,4000,89,4080,72.8C4160,57,4240,57,4320,57C4400,57,4480,57,4560,69.7C4640,82,4720,108,4800,107.7C4880,108,4960,82,5040,69.7C5120,57,5200,57,5280,57C5360,57,5440,57,5520,53.8C5600,51,5680,44,5720,41.2L5760,38L5760,190L5720,190C5680,190,5600,190,5520,190C5440,190,5360,190,5280,190C5200,190,5120,190,5040,190C4960,190,4880,190,4800,190C4720,190,4640,190,4560,190C4480,190,4400,190,4320,190C4240,190,4160,190,4080,190C4000,190,3920,190,3840,190C3760,190,3680,190,3600,190C3520,190,3440,190,3360,190C3280,190,3200,190,3120,190C3040,190,2960,190,2880,190C2800,190,2720,190,2640,190C2560,190,2480,190,2400,190C2320,190,2240,190,2160,190C2080,190,2000,190,1920,190C1840,190,1760,190,1680,190C1600,190,1520,190,1440,190C1360,190,1280,190,1200,190C1120,190,1040,190,960,190C880,190,800,190,720,190C640,190,560,190,480,190C400,190,320,190,240,190C160,190,80,190,40,190L0,190Z"/></svg>