<?xml version="1.0" standalone="no"?>
<svg xmlns:xlink="http://www.w3.org/1999/xlink" id="wave" style="transform:rotate(180deg); transition: 0.3s" viewBox="0 0 1440 200" version="1.1" xmlns="http://www.w3.org/2000/svg"><defs><linearGradient id="sw-gradient-0" x1="0" x2="0" y1="1" y2="0"><stop stop-color="rgba(243, 106, 62, 1)" offset="0%"/><stop stop-color="rgba(255, 179, 11, 1)" offset="100%"/></linearGradient></defs><path style="transform:translate(0, 0px); opacity:1" fill="url(#sw-gradient-0)" d="M0,120L60,110C120,100,240,80,360,90C480,100,600,140,720,140C840,140,960,100,1080,96.7C1200,93,1320,127,1440,146.7C1560,167,1680,173,1800,176.7C1920,180,2040,180,2160,170C2280,160,2400,140,2520,116.7C2640,93,2760,67,2880,63.3C3000,60,3120,80,3240,93.3C3360,107,3480,113,3600,123.3C3720,133,3840,147,3960,146.7C4080,147,4200,133,4320,120C4440,107,4560,93,4680,76.7C4800,60,4920,40,5040,26.7C5160,13,5280,7,5400,23.3C5520,40,5640,80,5760,93.3C5880,107,6000,93,6120,76.7C6240,60,6360,40,6480,53.3C6600,67,6720,113,6840,113.3C6960,113,7080,67,7200,70C7320,73,7440,127,7560,123.3C7680,120,7800,60,7920,36.7C8040,13,8160,27,8280,53.3C8400,80,8520,120,8580,140L8640,160L8640,200L8580,200C8520,200,8400,200,8280,200C8160,200,8040,200,7920,200C7800,200,7680,200,7560,200C7440,200,7320,200,7200,200C7080,200,6960,200,6840,200C6720,200,6600,200,6480,200C6360,200,6240,200,6120,200C6000,200,5880,200,5760,200C5640,200,5520,200,5400,200C5280,200,5160,200,5040,200C4920,200,4800,200,4680,200C4560,200,4440,200,4320,200C4200,200,4080,200,3960,200C3840,200,3720,200,3600,200C3480,200,3360,200,3240,200C3120,200,3000,200,2880,200C2760,200,2640,200,2520,200C2400,200,2280,200,2160,200C2040,200,1920,200,1800,200C1680,200,1560,200,1440,200C1320,200,1200,200,1080,200C960,200,840,200,720,200C600,200,480,200,360,200C240,200,120,200,60,200L0,200Z"/></svg>